<?xml version="1.0" encoding="utf-8"?>
<!-- Generator: Adobe Illustrator 16.0.0, SVG Export Plug-In . SVG Version: 6.00 Build 0)  -->
<!DOCTYPE svg PUBLIC "-//W3C//DTD SVG 1.1//EN" "http://www.w3.org/Graphics/SVG/1.1/DTD/svg11.dtd">
<svg version="1.1" id="Layer_1" xmlns="http://www.w3.org/2000/svg" xmlns:xlink="http://www.w3.org/1999/xlink" x="0px" y="0px"
	 width="800px" height="600px" viewBox="0 0 800 600" enable-background="new 0 0 800 600" xml:space="preserve">
<path fill="none" d="M684.979,301.83c0,149.793-125.359,271.227-280,271.227c-154.639,0-279.999-121.434-279.999-271.227
	c0-149.801,125.36-271.234,279.999-271.234C559.62,30.596,684.979,152.029,684.979,301.83z"/>
<linearGradient id="SVGID_1_" gradientUnits="userSpaceOnUse" x1="406.4082" y1="273.0947" x2="390.954" y2="330.7706">
	<stop  offset="0" style="stop-color:#10707B"/>
	<stop  offset="0.0331" style="stop-color:#157F6F"/>
	<stop  offset="0.1133" style="stop-color:#1E9F56"/>
	<stop  offset="0.1577" style="stop-color:#22AB4D"/>
	<stop  offset="0.3163" style="stop-color:#98CA36"/>
	<stop  offset="0.4039" style="stop-color:#D5DA2A"/>
	<stop  offset="0.4235" style="stop-color:#D6DA2D"/>
	<stop  offset="0.4355" style="stop-color:#D7DC35"/>
	<stop  offset="0.4454" style="stop-color:#DADE43"/>
	<stop  offset="0.4542" style="stop-color:#DEE258"/>
	<stop  offset="0.4622" style="stop-color:#E3E772"/>
	<stop  offset="0.4698" style="stop-color:#EAEC93"/>
	<stop  offset="0.4769" style="stop-color:#F1F3BA"/>
	<stop  offset="0.4835" style="stop-color:#FAFBE5"/>
	<stop  offset="0.4869" style="stop-color:#FFFFFF"/>
	<stop  offset="0.491" style="stop-color:#FDF1ED"/>
	<stop  offset="0.5024" style="stop-color:#F9CEC1"/>
	<stop  offset="0.5146" style="stop-color:#F5AF9A"/>
	<stop  offset="0.5275" style="stop-color:#F29679"/>
	<stop  offset="0.5412" style="stop-color:#EF815E"/>
	<stop  offset="0.5562" style="stop-color:#ED704A"/>
	<stop  offset="0.5731" style="stop-color:#EC653B"/>
	<stop  offset="0.5932" style="stop-color:#EB5E33"/>
	<stop  offset="0.6256" style="stop-color:#EB5C30"/>
	<stop  offset="0.6326" style="stop-color:#EB5230"/>
	<stop  offset="0.6491" style="stop-color:#EA412F"/>
	<stop  offset="0.6696" style="stop-color:#EA362E"/>
	<stop  offset="0.6984" style="stop-color:#EA2F2E"/>
	<stop  offset="0.7783" style="stop-color:#EA2D2E"/>
	<stop  offset="0.8222" style="stop-color:#DD2D2D"/>
	<stop  offset="0.9033" style="stop-color:#BB2C2B"/>
	<stop  offset="1" style="stop-color:#8A2A27"/>
</linearGradient>
<ellipse fill="url(#SVGID_1_)" cx="398.681" cy="301.932" rx="30.533" ry="29.799"/>
<g>
	<path fill="#00954B" d="M152.075,173.369c0,0-0.13,0.31-0.387,0.92c-0.261,0.608-0.642,1.522-1.109,2.733
		c-0.936,2.419-2.25,6.054-3.462,10.876c-0.586,2.415-1.136,5.13-1.486,8.131c-0.362,2.996-0.566,6.277-0.39,9.781
		c0.326,6.993,2.135,14.904,6.418,22.633c4.251,7.732,10.757,15.265,19.15,22.066c8.365,6.835,18.442,13.105,29.79,18.816
		c11.325,5.761,23.897,11.038,37.44,15.949c13.519,4.98,28.025,9.579,43.31,14.001c15.269,4.477,31.353,8.683,48.08,12.854
		c16.714,4.221,34.109,8.285,52.036,12.447c17.972,4.181,36.435,8.475,55.306,12.863c18.896,4.52,38.242,9.226,57.932,14.456
		c19.662,5.35,39.662,11.166,59.875,18.402c10.113,3.619,20.231,7.715,30.385,12.522c10.135,4.856,20.327,10.371,30.286,17.971
		c4.957,3.844,9.881,8.224,14.393,13.745c2.257,2.743,4.362,5.824,6.238,9.199c1.857,3.397,3.456,7.127,4.574,11.119
		c1.121,3.984,1.753,8.206,1.821,12.384c0.073,4.176-0.384,8.299-1.255,12.144c-1.736,7.737-4.901,14.377-8.432,20.149
		c-0.889,1.445-1.803,2.85-2.744,4.2l-0.707,1.012l-0.864,1.171l-1.205,1.604l-1.205,1.605l-0.622,0.819l-0.756,0.932l-3.043,3.715
		c-3.974,4.623-7.953,8.934-12.191,13.004c-8.442,8.134-17.351,15.505-26.618,22.217c-18.539,13.413-38.276,24.669-58.871,33.782
		c-10.288,4.57-20.771,8.642-31.415,12.184c-10.644,3.535-21.443,6.575-32.39,8.916c-10.938,2.362-21.999,4.129-33.126,5.197
		c-2.788,0.223-5.573,0.445-8.354,0.668c-2.795,0.128-5.586,0.256-8.373,0.383c-2.797,0.032-5.591,0.063-8.38,0.096l-0.523,0.004
		l-0.713-0.01l-0.974-0.021l-1.945-0.052l-3.886-0.108c-11.205-0.418-21.888-1.407-32.589-2.946
		c-10.663-1.545-21.167-3.612-31.429-6.246c-20.513-5.313-40.084-12.655-58.269-21.694c-18.152-9.106-34.97-19.775-50.099-31.672
		c-15.085-11.952-28.614-24.938-40.314-38.631c-1.479-1.763-2.952-3.519-4.418-5.267c-0.674-0.839-1.347-1.676-2.018-2.512
		c-0.677-0.854-1.325-1.617-2.032-2.575c-1.368-1.834-2.815-3.67-4.085-5.479c-1.263-1.816-2.57-3.595-3.773-5.419
		c-4.891-7.252-9.262-14.588-13.123-21.964c-3.88-7.365-7.332-14.724-10.449-22.005c-3.051-7.311-5.799-14.528-8.193-21.654
		c-4.724-14.272-8.194-28.086-10.708-41.176c-4.842-26.239-5.829-49.499-4.957-68.46c0.809-18.985,3.33-33.682,5.308-43.579
		c0.523-2.473,0.95-4.66,1.398-6.533c0.46-1.869,0.847-3.441,1.159-4.707c0.622-2.528,0.943-3.833,0.943-3.833
		s-0.178,1.333-0.522,3.914c-0.171,1.289-0.385,2.889-0.639,4.791c-0.246,1.901-0.418,4.121-0.688,6.617
		c-0.125,1.249-0.258,2.57-0.398,3.963c-0.098,1.397-0.2,2.865-0.307,4.404c-0.105,1.537-0.215,3.144-0.331,4.82
		c-0.064,1.679-0.131,3.426-0.201,5.241c-0.2,3.623-0.177,7.528-0.22,11.679c-0.038,2.075,0.075,4.22,0.107,6.422
		c0.047,2.203,0.092,4.468,0.235,6.793c0.373,9.3,1.319,19.563,2.96,30.617c1.614,11.056,3.969,22.906,7.292,35.326
		c3.328,12.415,7.612,25.406,13.087,38.663c2.759,6.619,5.785,13.311,9.122,20.027c3.394,6.687,7.091,13.396,11.159,20.036
		c4.07,6.639,8.499,13.217,13.356,19.591c1.197,1.607,2.48,3.149,3.722,4.737c1.252,1.584,2.53,3.009,3.795,4.531
		c0.595,0.73,1.379,1.559,2.079,2.345c0.718,0.796,1.438,1.593,2.159,2.392c1.415,1.448,2.837,2.902,4.264,4.362
		c11.844,11.822,25.012,23.067,39.599,33.068c14.558,10.022,30.409,18.952,47.36,26.259c16.912,7.373,34.886,13.222,53.564,17.128
		c9.332,1.978,18.826,3.532,28.445,4.559c9.58,1.034,19.459,1.565,28.966,1.58c2.502-0.022,5.009-0.046,7.519-0.069
		c2.403-0.09,4.811-0.181,7.222-0.271c2.413-0.174,4.83-0.348,7.25-0.521c2.42-0.258,4.843-0.516,7.27-0.773
		c9.7-1.189,19.423-3,29.085-5.353c19.322-4.713,38.474-11.388,56.851-19.921c18.344-8.564,36.11-18.679,52.285-30.561
		c8.094-5.919,15.719-12.332,22.688-19.117c3.512-3.345,6.821-6.911,9.853-10.39l2.07-2.48l0.521-0.616
		c0.181-0.219,0.398-0.521,0.597-0.776l1.213-1.599l1.213-1.599l0.304-0.399c0.317-0.427-0.085,0.126,0.03-0.039l0.443-0.631
		c0.595-0.84,1.142-1.676,1.659-2.505c2.071-3.314,3.459-6.511,4.065-9.2c0.607-2.722,0.563-4.833-0.04-7.102
		c-0.598-2.257-1.956-4.83-4.144-7.576c-2.146-2.749-5.094-5.562-8.441-8.234c-6.763-5.365-15.061-10.175-23.742-14.475
		c-8.7-4.329-17.899-8.124-27.183-11.771c-18.622-7.23-37.806-13.366-56.841-19.096c-19.029-5.805-37.978-11.153-56.597-16.329
		c-18.659-5.255-36.915-10.396-54.686-15.4c-17.794-5.106-35.093-10.271-51.795-15.487c-16.689-5.264-32.749-10.7-48.07-16.302
		c-15.303-5.657-29.839-11.569-43.457-17.791c-13.586-6.29-26.249-12.917-37.685-20.076c-11.395-7.207-21.617-14.907-29.994-23.344
		c-8.356-8.415-14.885-17.593-18.624-26.896c-3.821-9.275-4.803-18.373-4.171-25.932c0.593-7.602,2.509-13.746,4.367-18.497
		c1.88-4.761,3.75-8.18,5.029-10.459c0.642-1.142,1.149-1.987,1.496-2.552C151.901,173.657,152.075,173.369,152.075,173.369z"/>
</g>
<g>
	<g>
		<path fill="#00A251" d="M307.569,238.862c2.399-3.147,3.63-4.658,6.147-7.555c1.015,0.573,2.295,0.548,3.842-0.016
			c1.545-0.563,3.604-1.836,6.214-3.67c2.607-1.832,5.398-3.988,8.437-6.402c2.701-2.146,5.043-4.049,7.029-5.823
			c1.985-1.773,3.412-3.231,4.249-4.464c0.838-1.233,1.144-2.191,0.88-2.885c-0.266-0.704-1.028-1.014-2.297-0.889
			s-3.216,0.781-5.806,2.084c-1.663,0.836-5.296,2.806-10.757,6.695c-5.459,3.89-9.25,7.039-11.516,8.734
			c-2.939,2.2-5.282,3.788-7.078,4.575c-1.793,0.786-3.041,0.827-3.724,0.029c-0.752-0.876-0.683-2.634,0.295-5.249
			c0.979-2.617,2.914-5.884,5.888-9.57c2.974-3.685,6.58-7.341,10.802-10.77c4.647-3.773,8.992-6.483,12.88-8.323
			c3.89-1.841,7.035-2.658,9.374-2.68c2.339-0.022,3.772,0.667,4.341,1.946c-3.202,1.74-4.788,2.676-7.921,4.681
			c-0.975-1.154-2.855-1.351-5.642-0.419c-2.791,0.933-6.651,3.111-11.382,6.935c-4.929,3.985-8.214,7.583-9.971,10.242
			c-1.756,2.659-2.303,4.42-1.739,5.192c0.489,0.67,1.621,0.443,3.384-0.566c1.73-0.991,5.767-4.32,12.319-8.866
			c6.556-4.548,11.218-6.863,13.792-7.948c3.738-1.575,6.627-2.196,8.607-2.125c1.979,0.072,3.137,0.777,3.517,2.02
			c0.377,1.231-0.167,2.822-1.543,4.813c-1.376,1.992-3.53,4.162-6.412,6.7c-2.881,2.537-6.183,5.18-9.915,8.129
			c-4.732,3.739-8.708,7.055-12.105,9.644c-3.4,2.591-6.298,4.53-8.779,5.606C310.5,239.744,308.686,239.874,307.569,238.862z"/>
		<path fill="#00A251" d="M365.218,205.432c-1.951-9.6-2.892-14.408-4.698-24.056c3.619-1.266,5.44-1.825,9.086-2.794
			c1.197,9.808,1.834,14.701,3.178,24.472C369.747,203.881,368.232,204.356,365.218,205.432z"/>
		<path fill="#00A251" d="M385.973,200.39c-0.287-9.955-0.397-14.935-0.536-24.905c5.507-0.699,8.264-0.885,13.738-0.941
			c5.955,7.013,8.549,10.757,12.946,18.467c1.012,1.793,2.03,4.028,2.112,4.043c0.211,0.04,2.121-1.958,3.93-3.427
			c7.176-5.792,11.119-8.434,19.591-12.959c4.569,1.543,6.821,2.433,11.221,4.445c-4.086,9.16-6.093,13.753-10.047,22.965
			c-2.629-1.184-3.963-1.727-6.666-2.71c2.862-7.907,4.316-11.851,7.272-19.727c-10.143,5.221-14.806,8.399-23.068,15.45
			c-2.652-0.482-3.99-0.678-6.679-0.977c-5.136-9.168-8.29-13.601-15.703-21.7c-0.362,8.511-0.515,12.765-0.771,21.273
			C390.382,199.858,388.913,199.999,385.973,200.39z"/>
		<path fill="#00A251" d="M449.634,213.719c4.809-8.732,7.237-13.079,12.17-21.744c8.796,5.429,12.965,8.66,20.592,16.074
			c3.357,3.265,5.719,6.033,7.251,8.034c2.146,2.802,3.716,5.406,4.74,7.695s1.542,4.383,1.599,6.219
			c0.056,1.836-0.401,3.124-1.319,3.872c-1.575,1.284-3.915,0.764-7.092-1.215c-3.18-1.981-7.509-6.62-13.925-12.894
			c-4.654-4.552-7.128-6.629-12.293-10.363c-2.178,3.393-3.261,5.092-5.421,8.498C453.47,216.122,452.209,215.286,449.634,213.719z
			 M462.938,206.937c5.318,3.851,7.867,5.995,12.655,10.696c3.958,3.886,6.807,6.667,8.877,7.972c2.073,1.307,3.601,1.555,4.615,0.6
			c0.736-0.691,0.921-1.868,0.513-3.524c-0.408-1.654-1.313-3.515-2.753-5.488c-0.929-1.273-2.8-3.484-5.759-6.394
			c-5.046-4.96-7.729-7.225-13.328-11.299C465.822,202.47,464.857,203.958,462.938,206.937z"/>
		<path fill="#00A251" d="M486.749,253.374c7.76-5.404,11.653-8.069,19.485-13.335c1.882,3.554,2.77,5.387,4.426,9.16
			c-7.155,4.077-10.719,6.143-17.824,10.335c4.297,11.016,7.226,21.229,9.593,32.822c-1.034,0.245-1.551,0.366-2.584,0.613
			C497.002,279.054,493.494,265.984,486.749,253.374z"/>
	</g>
</g>
<g>
	<g>
		<path fill="#E73530" d="M283.662,335.179c1.102,3.192,1.698,4.751,2.969,7.795c-0.93,0.681-1.479,1.802-1.617,3.355
			c-0.139,1.553,0.175,3.823,1.044,6.735c0.869,2.914,2.198,6.053,4.035,9.315c1.631,2.896,3.314,5.29,4.979,7.216
			c1.662,1.924,3.125,3.186,4.321,3.848c1.194,0.661,2.086,0.787,2.668,0.414c0.59-0.378,0.765-1.158,0.552-2.337
			c-0.214-1.184-0.918-2.903-2.018-5.219c-0.705-1.485-2.408-4.692-4.663-9.914s-3.416-9.121-3.903-11.398
			c-0.631-2.95-0.749-5.269-0.452-6.874c0.297-1.609,0.964-2.53,1.955-2.788c1.088-0.283,2.384,0.294,3.912,1.623
			c1.525,1.327,3.11,3.395,4.86,6.099c1.752,2.708,3.498,5.694,5.322,8.951c2.01,3.59,3.715,6.715,5.035,9.534
			s2.133,5.136,2.338,7.047s-0.143,3.308-1.115,4.183c-1.917-2.159-2.848-3.275-4.645-5.583c0.955-1.078,1.071-2.703,0.439-4.902
			c-0.63-2.194-2.104-5.07-4.241-8.875c-2.226-3.963-3.954-6.903-5.443-8.629c-1.494-1.731-2.648-2.503-3.522-2.209
			c-0.758,0.255-1.085,1.197-0.943,2.819c0.141,1.598,1.237,5.563,3.925,11.455c2.685,5.886,4.833,9.714,5.878,11.866
			c1.518,3.128,2.494,5.554,2.802,7.377c0.307,1.819,0.014,3.093-0.953,3.803c-0.958,0.705-2.479,0.66-4.558-0.241
			c-2.076-0.899-4.504-2.661-7.148-5.411c-2.645-2.751-5.225-6.201-7.583-10.375c-2.989-5.293-4.914-10.136-5.991-14.197
			c-1.078-4.065-1.349-7.446-0.977-10.004C281.298,337.102,282.244,335.617,283.662,335.179z"/>
		<path fill="#E73530" d="M316.458,383.254c2.816-2.417,6.758-2.449,11.86-0.756c5.099,1.692,10.467,4.604,16.704,8.443
			c4.08,2.512,7.626,4.905,10.679,7.405c3.051,2.5,5.252,4.831,6.5,7.174c1.249,2.346,1.512,4.532,0.627,6.584
			c-0.897,2.08-2.824,3.571-5.883,4.31c-3.058,0.738-6.975,0.614-11.626-0.612c-4.649-1.225-9.382-3.284-13.99-6.209
			c-4.994-3.17-8.947-6.752-11.832-10.428c-2.886-3.678-4.425-7.023-4.795-9.817C314.332,386.557,314.97,384.531,316.458,383.254z
			 M322.211,388.766c-1.925,1.887-2.043,4.677-0.037,8.293c2.005,3.614,5.55,7.263,10.643,10.487
			c5.188,3.284,10.115,4.974,14.398,5.294c4.285,0.32,7.044-0.971,8.348-3.534c0.825-1.621,0.816-3.337,0.067-5.141
			c-0.751-1.809-2.229-3.627-4.377-5.55c-2.145-1.921-4.694-3.746-7.676-5.585c-4.235-2.613-8.145-4.563-11.996-5.786
			C327.73,386.021,324.614,386.409,322.211,388.766z"/>
		<path fill="#E73530" d="M368.878,425.566c2.978-8.432,4.403-12.669,7.117-21.175c11.349,2.854,23.121,3.936,34.799,3.193
			c0.006,1.055,0.009,1.582,0.011,2.637c-9.615,0.596-19.292-0.013-28.757-1.805c-0.686,2.678-1.037,4.016-1.749,6.688
			c10.38,2.009,15.72,2.467,26.348,2.205c-0.044,1.054-0.065,1.578-0.113,2.632c-10.859,0.251-16.313-0.221-26.917-2.289
			c-1.059,3.919-1.604,5.874-2.718,9.78C373.668,426.784,372.062,426.41,368.878,425.566z"/>
		<path fill="#E73530" d="M437.079,425.876c-1.365-7.773-2.102-11.649-3.678-19.374c-6.897,1.867-10.405,2.519-17.43,3.278
			c-0.05-1.054-0.075-1.581-0.129-2.634c14.419-1.58,27.057-6.279,40.062-12.421c0.436,0.962,0.65,1.445,1.082,2.408
			c-6.502,3.489-9.865,4.935-16.699,7.265c2.055,7.614,3.029,11.438,4.873,19.114C441.949,424.564,440.332,425.036,437.079,425.876z
			"/>
		<path fill="#E73530" d="M466.91,405.895c2.637-1.659,3.938-2.534,6.49-4.374c0.85,0.772,2.02,1.089,3.516,0.91
			c1.493-0.179,3.567-0.945,6.171-2.42s5.364-3.479,8.204-6.08c2.518-2.305,4.578-4.595,6.192-6.775
			c1.615-2.18,2.626-4.015,3.08-5.423c0.453-1.405,0.422-2.362-0.061-2.854c-0.489-0.5-1.316-0.458-2.471,0.084
			c-1.162,0.546-2.782,1.74-4.897,3.455c-1.359,1.103-4.269,3.665-8.922,7.111c-4.65,3.445-8.099,5.377-10.144,6.319
			c-2.654,1.223-4.779,1.79-6.341,1.813c-1.563,0.022-2.568-0.454-3.04-1.366c-0.52-1.003-0.298-2.365,0.586-4.112
			c0.883-1.746,2.456-3.703,4.659-5.992c2.205-2.291,4.73-4.671,7.578-7.267c3.138-2.859,5.959-5.393,8.572-7.509
			c2.616-2.117,4.849-3.634,6.775-4.415c1.925-0.78,3.425-0.849,4.487-0.092c-1.902,2.673-2.885,3.965-4.91,6.457
			c-1.268-0.681-2.941-0.344-5.044,0.887c-2.104,1.232-4.727,3.482-8.052,6.52c-3.463,3.163-5.915,5.489-7.244,7.319
			c-1.33,1.833-1.8,3.117-1.325,3.911c0.412,0.688,1.377,0.815,2.89,0.338c1.489-0.47,5.017-2.347,10.279-6.421
			c5.258-4.07,8.75-7.308,10.746-8.971c2.896-2.414,5.218-4.146,7.037-5.015c1.816-0.866,3.176-0.951,4.068-0.153
			c0.885,0.793,1.09,2.412,0.522,4.845s-1.948,5.463-4.239,8.9c-2.292,3.438-5.252,6.913-8.885,10.246
			c-4.6,4.223-8.825,7.134-12.426,9.018c-3.604,1.885-6.671,2.797-9.106,2.92S467.652,407.186,466.91,405.895z"/>
	</g>
</g>
<g>
	<path fill="#EA2D2E" d="M645.202,428.973c0,0,0.13-0.311,0.385-0.921c0.247-0.614,0.656-1.517,1.119-2.732
		c0.946-2.412,2.256-6.049,3.489-10.864c1.168-4.817,2.225-10.887,1.924-17.905c-0.299-6.993-2.092-14.91-6.355-22.648
		c-4.229-7.743-10.713-15.292-19.079-22.122c-8.35-6.855-18.412-13.148-29.741-18.892c-11.305-5.8-23.872-11.093-37.396-16.049
		c-13.516-5.011-27.97-9.673-43.302-14.092c-1.931-0.574-3.87-1.151-5.821-1.731c-1.929-0.54-3.867-1.082-5.815-1.626
		c-3.905-1.073-7.79-2.206-11.813-3.259c-4.015-1.06-8.065-2.129-12.154-3.208c-4.103-1.045-8.242-2.1-12.417-3.164
		c-16.707-4.258-34.081-8.389-51.996-12.598c-17.96-4.228-36.411-8.57-55.269-13.009c-18.884-4.571-38.217-9.324-57.892-14.608
		c-19.647-5.401-39.632-11.271-59.825-18.56c-10.104-3.641-20.21-7.777-30.351-12.603c-10.122-4.892-20.299-10.424-30.237-18.058
		c-4.948-3.852-9.858-8.256-14.355-13.787c-2.245-2.755-4.35-5.832-6.208-9.226c-1.854-3.393-3.435-7.138-4.542-11.131
		c-1.109-3.988-1.727-8.213-1.781-12.39c-0.067-4.182,0.424-8.287,1.291-12.14c1.769-7.726,4.949-14.352,8.495-20.117
		c0.894-1.44,1.811-2.844,2.756-4.19l0.71-1.01l0.866-1.165l1.209-1.602l1.209-1.602c0.211-0.275,0.381-0.516,0.626-0.82
		l0.759-0.929l3.052-3.706c3.985-4.61,7.977-8.911,12.226-12.969c8.464-8.11,17.392-15.457,26.677-22.143
		c18.574-13.363,38.341-24.565,58.958-33.624c10.3-4.543,20.793-8.586,31.446-12.1c10.653-3.507,21.46-6.519,32.412-8.831
		c10.945-2.333,22.009-4.071,33.138-5.111c2.789-0.215,5.575-0.431,8.356-0.646c2.795-0.121,5.586-0.241,8.374-0.361
		c2.797-0.024,5.591-0.049,8.38-0.074l0.523-0.003l0.714,0.011l0.973,0.025l1.945,0.057l3.886,0.118
		c11.202,0.447,21.884,1.464,32.58,3.03c10.658,1.573,21.157,3.668,31.412,6.329c20.498,5.365,40.051,12.759,58.21,21.846
		c18.128,9.154,34.918,19.867,50.014,31.804c15.053,11.992,28.546,25.014,40.21,38.738c1.474,1.767,2.941,3.526,4.403,5.278
		c0.672,0.841,1.343,1.68,2.012,2.517c0.675,0.857,1.32,1.62,2.025,2.581c1.362,1.837,2.805,3.677,4.069,5.49
		c1.259,1.82,2.561,3.602,3.76,5.429c4.871,7.266,9.222,14.613,13.062,22c3.859,7.375,7.291,14.743,10.389,22.033
		c3.03,7.319,5.758,14.544,8.133,21.676c4.684,14.286,8.114,28.108,10.592,41.205c4.769,26.252,5.689,49.514,4.765,68.472
		c-0.862,18.982-3.425,33.672-5.431,43.563c-0.53,2.472-0.963,4.657-1.417,6.528c-0.465,1.867-0.856,3.438-1.172,4.704
		c-0.629,2.526-0.954,3.83-0.954,3.83s0.182-1.332,0.533-3.912c0.176-1.288,0.394-2.888,0.652-4.789
		c0.252-1.9,0.431-4.119,0.707-6.614c0.129-1.248,0.266-2.569,0.409-3.962c0.102-1.396,0.208-2.865,0.32-4.403
		c0.109-1.537,0.224-3.144,0.344-4.819c0.068-1.678,0.141-3.426,0.215-5.24c0.211-3.622,0.199-7.527,0.253-11.679
		c0.044-2.074-0.063-4.22-0.089-6.422c-0.04-2.203-0.078-4.468-0.216-6.794c-0.346-9.3-1.264-19.566-2.874-30.624
		c-1.582-11.06-3.904-22.917-7.192-35.345c-3.293-12.424-7.541-25.427-12.979-38.698c-2.741-6.626-5.748-13.327-9.066-20.052
		c-3.375-6.696-7.054-13.415-11.103-20.066c-4.052-6.65-8.462-13.24-13.303-19.626c-1.192-1.611-2.472-3.156-3.708-4.748
		c-1.248-1.587-2.522-3.015-3.783-4.541c-0.593-0.732-1.374-1.563-2.072-2.351c-0.716-0.797-1.433-1.597-2.152-2.397
		c-1.411-1.452-2.828-2.909-4.252-4.374c-11.812-11.854-24.949-23.133-39.509-33.173c-14.53-10.062-30.357-19.033-47.288-26.383
		c-16.892-7.418-34.85-13.313-53.518-17.268c-9.325-2.002-18.815-3.582-28.432-4.632c-9.577-1.059-19.452-1.615-28.962-1.655
		c-2.502,0.017-5.008,0.034-7.518,0.05c-2.404,0.084-4.812,0.168-7.222,0.252c-2.414,0.167-4.832,0.335-7.252,0.502
		c-2.42,0.251-4.844,0.502-7.271,0.754c-9.704,1.164-19.431,2.949-29.099,5.276c-19.333,4.662-38.502,11.286-56.902,19.771
		c-18.366,8.516-36.159,18.582-52.365,30.42c-8.109,5.897-15.752,12.289-22.74,19.055c-3.521,3.336-6.84,6.892-9.882,10.363
		l-2.077,2.475l-0.524,0.615c-0.179,0.214-0.399,0.518-0.597,0.772l-1.218,1.595l-1.217,1.595l-0.304,0.399
		c-0.316,0.423,0.082-0.122-0.033,0.042l-0.446,0.629c-0.598,0.838-1.145,1.673-1.667,2.5c-2.078,3.309-3.475,6.501-4.099,9.192
		c-0.612,2.72-0.573,4.832,0.021,7.101c0.593,2.258,1.946,4.833,4.116,7.585c2.143,2.753,5.071,5.575,8.417,8.256
		c6.741,5.386,15.034,10.212,23.696,14.539c8.695,4.347,17.874,8.176,27.151,11.842c18.603,7.278,37.768,13.467,56.788,19.246
		c19.012,5.856,37.948,11.252,56.552,16.478c18.645,5.304,36.887,10.494,54.644,15.546c17.78,5.152,35.063,10.385,51.751,15.638
		c4.172,1.325,8.301,2.651,12.388,4c4.083,1.375,8.129,2.737,12.138,4.086c4.005,1.34,8.005,2.798,11.943,4.17
		c1.969,0.696,3.927,1.388,5.876,2.077c1.907,0.709,3.805,1.414,5.692,2.116c1.887,0.706,3.764,1.408,5.63,2.106
		c0.933,0.352,1.862,0.703,2.79,1.053c0.966,0.375,1.93,0.75,2.891,1.124c3.723,1.458,7.396,2.931,11.017,4.424
		c7.241,2.978,14.272,6.029,21.071,9.162c13.566,6.335,26.217,12.978,37.631,20.177c11.373,7.24,21.576,14.963,29.933,23.42
		c8.327,8.446,14.83,17.64,18.542,26.953c3.796,9.281,4.759,18.384,4.098,25.939c-0.305,3.794-0.953,7.234-1.732,10.314
		c-0.786,3.081-1.772,5.782-2.685,8.169c-1.902,4.751-3.765,8.172-5.058,10.448c-0.636,1.141-1.17,1.972-1.503,2.544
		C645.375,428.685,645.202,428.973,645.202,428.973z"/>
</g>
<linearGradient id="SVGID_2_" gradientUnits="userSpaceOnUse" x1="388.2803" y1="301.8604" x2="409.2803" y2="301.8604">
	<stop  offset="0" style="stop-color:#F7D075"/>
	<stop  offset="0.2109" style="stop-color:#F0A85E"/>
	<stop  offset="0.3596" style="stop-color:#EC9150"/>
	<stop  offset="0.5393" style="stop-color:#CB7637"/>
	<stop  offset="1" style="stop-color:#8C4A26"/>
</linearGradient>
<ellipse fill="url(#SVGID_2_)" cx="398.78" cy="301.859" rx="10.5" ry="10.172"/>
<g>
	<path fill="#00954B" d="M283.163,311.174c0,0,1.113,0.219,3.269,0.644c2.159,0.414,5.352,1.065,9.512,1.922
		c8.329,1.629,20.49,4.097,36.003,7.066c15.504,2.951,34.331,6.534,55.926,10.646c10.794,2.095,22.29,4.294,34.406,6.709
		c12.101,2.477,24.867,4.983,38.139,7.944c6.643,1.456,13.427,2.973,20.343,4.561c6.913,1.603,13.938,3.347,21.097,5.155
		c7.153,1.828,14.442,3.714,21.82,5.816c7.374,2.115,14.86,4.371,22.446,6.834c7.584,2.469,15.283,5.111,23.023,8.2
		c7.748,3.064,15.582,6.462,23.469,10.463c3.941,2.011,7.9,4.173,11.852,6.582c3.936,2.447,7.874,5.104,11.766,8.17
		c3.888,3.063,7.745,6.504,11.401,10.604c3.642,4.096,7.107,8.897,9.81,14.595c2.694,5.665,4.523,12.313,4.759,19.016
		c0.279,6.702-0.867,13.255-2.814,19.006c-1.944,5.781-4.585,10.896-7.493,15.485c-0.729,1.145-1.471,2.277-2.235,3.361l-0.572,0.82
		l-0.741,1.002l-0.976,1.3l-1.954,2.604l-2.44,3.005c-0.819,0.986-1.663,2.053-2.471,2.969l-2.419,2.72
		c-1.598,1.844-3.28,3.554-4.948,5.296c-1.652,1.769-3.39,3.398-5.115,5.067c-1.71,1.691-3.505,3.243-5.271,4.853
		c-7.116,6.343-14.563,12.208-22.254,17.703c-15.391,10.971-31.717,20.552-48.824,28.629c-17.071,8.146-34.89,14.828-53.175,20.115
		c-9.157,2.608-18.471,4.724-27.863,6.468c-9.392,1.753-18.904,2.989-28.474,3.721l-3.585,0.284l-3.601,0.17
		c-2.403,0.091-4.791,0.269-7.203,0.257l-3.608,0.036l-1.803,0.018l-0.901,0.008l-0.664-0.001l-0.419-0.009l-6.706-0.18
		l-0.838-0.023l-0.906-0.048l-1.811-0.095l-3.618-0.193c-2.439-0.104-4.744-0.33-7.093-0.514l-3.509-0.288l-3.498-0.376
		c-2.329-0.268-4.662-0.473-6.977-0.817c-18.564-2.359-36.722-6.521-54.111-12.185c-8.688-2.86-17.184-6.09-25.459-9.646
		c-8.28-3.545-16.329-7.452-24.078-11.734c-31.126-16.926-57.792-38.974-78.962-63.15c-1.345-1.492-2.599-3.059-3.894-4.574
		l-1.921-2.285l-1.911-2.368l-1.792-2.23l-1.848-2.43c-1.231-1.633-2.483-3.263-3.583-4.87c-4.581-6.42-8.72-12.939-12.449-19.51
		c-3.71-6.581-7.142-13.146-10.159-19.735c-0.787-1.632-1.521-3.277-2.233-4.923c-0.715-1.644-1.451-3.268-2.136-4.902
		c-1.328-3.288-2.71-6.513-3.9-9.772c-4.953-12.961-8.742-25.692-11.647-37.93c-2.93-12.235-4.929-23.993-6.247-35.084
		c-2.701-22.189-2.483-41.688-1.291-57.555c1.182-15.889,3.445-28.184,5.241-36.47c0.427-2.077,0.82-3.906,1.229-5.472
		c0.386-1.569,0.711-2.889,0.972-3.952c0.523-2.123,0.792-3.218,0.792-3.218s-0.149,1.119-0.438,3.287
		c-0.145,1.083-0.324,2.427-0.537,4.024c-0.235,1.593-0.428,3.45-0.625,5.553c-0.926,8.383-1.931,20.737-1.659,36.402
		c0.046,1.956,0.093,3.964,0.141,6.023c0.073,2.058,0.204,4.166,0.306,6.321c0.055,1.077,0.11,2.167,0.166,3.269
		c0.09,1.1,0.18,2.213,0.272,3.338c0.201,2.248,0.33,4.546,0.6,6.883c0.26,2.335,0.526,4.718,0.797,7.146
		c0.336,2.419,0.678,4.884,1.027,7.394c0.759,5.009,1.611,10.183,2.7,15.484c4.298,21.191,11.185,44.715,22.239,68.69
		c1.327,3.019,2.838,5.986,4.292,9.013c0.748,1.503,1.543,2.99,2.317,4.496c0.771,1.508,1.563,3.013,2.404,4.499
		c3.238,6.016,6.854,11.948,10.694,17.835c3.823,5.9,7.982,11.692,12.481,17.28c1.11,1.441,2.246,2.741,3.375,4.077l1.715,2.017
		l1.917,2.124l1.812,2.001l1.947,1.984c1.311,1.314,2.577,2.676,3.932,3.963c10.669,10.443,22.314,20.439,35.107,29.37
		c6.393,4.463,12.969,8.794,19.817,12.808c6.849,4.011,13.921,7.769,21.193,11.24c14.56,6.913,29.897,12.726,45.807,17.159
		c7.962,2.192,16.069,3.997,24.256,5.532c8.189,1.529,16.482,2.715,24.847,3.461c2.085,0.237,4.187,0.338,6.282,0.504l3.146,0.227
		l3.155,0.141c2.096,0.087,4.236,0.222,6.258,0.228l3.072,0.055l1.536,0.029l0.768,0.015l0.837-0.007l6.708-0.048l6.034-0.212
		c2.07-0.035,4.151-0.257,6.229-0.386l3.117-0.225l3.12-0.335c16.655-1.649,33.282-5.396,49.582-10.256
		c16.277-4.99,32.247-11.253,47.479-18.825c7.614-3.783,15.092-7.794,22.357-12.077c7.242-4.315,14.268-8.903,20.995-13.761
		c6.724-4.856,13.153-9.985,19.141-15.38c2.999-2.691,5.873-5.464,8.627-8.269c1.363-1.412,2.76-2.804,4.021-4.258l1.941-2.152
		c0.639-0.713,1.137-1.362,1.716-2.041l1.7-2.029l1.967-2.593l0.982-1.295l0.246-0.323c0.293-0.396-0.118,0.17-0.016,0.024
		l0.359-0.51c0.491-0.679,0.937-1.356,1.376-2.028c1.746-2.687,3.048-5.306,3.863-7.658c0.825-2.366,1.112-4.391,1.069-6.21
		c-0.077-1.817-0.402-3.553-1.27-5.546c-0.859-1.977-2.243-4.158-4.11-6.367c-1.862-2.211-4.177-4.431-6.757-6.567
		c-2.576-2.142-5.444-4.193-8.441-6.161c-2.999-1.983-6.143-3.889-9.38-5.705c-13.003-7.27-27.195-13.168-41.174-18.67
		c-7.017-2.722-14.041-5.276-21.02-7.709c-6.975-2.443-13.881-4.84-20.723-7.101c-6.837-2.279-13.608-4.421-20.257-6.563
		c-6.647-2.15-13.194-4.227-19.623-6.237c-12.888-4.035-25.238-7.901-36.985-11.579c-11.763-3.707-22.926-7.289-33.411-10.684
		c-20.955-6.887-39.176-13.141-54.05-18.688c-14.896-5.463-26.453-10.225-34.302-13.496c-3.904-1.676-6.889-2.981-8.895-3.879
		C284.2,311.633,283.163,311.174,283.163,311.174z"/>
</g>
<g>
	<path fill="#EA2D2E" d="M528.284,295.395c0,0-1.121-0.245-3.294-0.72c-2.176-0.466-5.395-1.185-9.586-2.145
		c-8.398-1.86-20.656-4.513-36.304-7.77c-15.647-3.23-34.653-7.025-56.479-11.34c-10.914-2.183-22.528-4.505-34.772-6.953
		c-12.23-2.553-25.133-5.129-38.563-8.088c-13.428-2.967-27.452-6.047-41.916-9.69c-7.238-1.799-14.601-3.687-22.079-5.696
		c-7.472-2.028-15.038-4.244-22.718-6.601c-7.674-2.373-15.462-4.894-23.321-7.742c-7.848-2.878-15.783-6.028-23.784-9.655
		c-7.987-3.66-16.094-7.697-24.11-12.876c-4.008-2.597-8.013-5.444-11.952-8.741c-3.931-3.305-7.818-7.046-11.418-11.546
		c-3.576-4.499-6.904-9.803-9.185-16.019c-2.323-6.169-3.36-13.223-2.907-19.937c0.432-6.729,2.185-13.013,4.538-18.505
		c2.36-5.516,5.27-10.377,8.395-14.772c11.913-16.508,26.246-29.598,41.531-41.277c30.635-23.19,65.404-40.323,102.191-51.735
		c9.193-2.864,18.56-5.235,28.023-7.179c9.464-1.942,19.028-3.492,28.686-4.433c2.401-0.3,4.835-0.422,7.25-0.628l3.628-0.272
		l3.643-0.159c2.429-0.096,4.848-0.243,7.287-0.227l3.649-0.027l1.823-0.012l1.123,0l0.848,0.021
		c2.261,0.067,4.521,0.134,6.78,0.202c2.433,0.133,4.864,0.265,7.294,0.398c2.461,0.116,4.765,0.374,7.15,0.555
		c2.367,0.176,4.725,0.44,7.078,0.71c37.707,4.076,73.799,15.582,105.51,32.289c7.94,4.167,15.575,8.729,22.948,13.507
		c7.354,4.808,14.483,9.798,21.206,15.155c13.46,10.682,25.74,22.191,36.56,34.368c2.726,3.025,5.309,6.136,7.875,9.216
		c1.25,1.556,2.496,3.107,3.736,4.652c1.219,1.562,2.479,3.28,3.703,4.903c4.752,6.507,8.963,13.059,12.847,19.674
		c7.704,13.244,13.85,26.628,18.948,39.721c10.071,26.256,15.687,51.432,18.356,73.889c1.359,11.23,2.058,21.788,2.148,31.545
		c0.086,2.436,0.021,4.827,0.013,7.163c-0.018,2.336-0.019,4.619-0.133,6.849c-0.086,2.229-0.17,4.405-0.252,6.529
		c-0.153,2.119-0.303,4.186-0.449,6.197c-1.214,16.089-3.521,28.535-5.355,36.923c-0.842,4.21-1.746,7.383-2.252,9.537
		c-0.535,2.148-0.812,3.257-0.812,3.257s0.154-1.133,0.453-3.327c0.27-2.198,0.822-5.432,1.2-9.694
		c0.954-8.486,1.99-20.994,1.732-36.854c-0.232-15.842-1.734-35.062-6.089-56.552c-2.183-10.736-5.056-22.03-8.75-33.696
		c-3.722-11.659-8.402-23.641-13.956-35.775c-5.631-12.095-12.267-24.313-20.181-36.136c-3.938-5.904-8.207-11.761-12.777-17.319
		c-1.155-1.354-2.226-2.67-3.451-4.07l-1.928-2.147l-0.967-1.077l-0.484-0.539c-0.031-0.032-0.272-0.31-0.131-0.14l-0.245-0.25
		c-2.604-2.676-5.212-5.375-7.951-7.982c-21.643-21.087-47.978-39.546-77.609-53.22c-29.605-13.699-62.532-22.468-96.443-25
		c-2.118-0.166-4.238-0.329-6.366-0.406c-2.108-0.081-4.294-0.249-6.342-0.263c-2.077-0.041-4.156-0.082-6.237-0.122
		c-2.259,0.011-4.52,0.022-6.782,0.034l-0.849,0.001c-0.194-0.002,0.15,0.007-0.181,0.01l-0.393,0.014l-1.572,0.054l-3.144,0.106
		c-2.094,0.033-4.198,0.225-6.3,0.362l-3.154,0.216l-3.157,0.324c-2.105,0.238-4.211,0.388-6.315,0.713
		c-16.856,2.115-33.629,6.243-50.057,11.491c-16.398,5.37-32.441,12.057-47.691,20.038c-15.281,7.893-29.916,16.907-43.167,27.119
		c-6.625,5.095-12.914,10.472-18.678,16.115c-2.91,2.797-5.651,5.681-8.256,8.604c-0.7,0.744-1.232,1.415-1.806,2.099l-1.721,2.039
		c-0.266,0.29-0.642,0.817-0.965,1.23l-1.004,1.315l-1.003,1.314l-0.501,0.657c0.027-0.039-0.414,0.551-0.002-0.004l-0.184,0.259
		c-2.007,2.758-3.605,5.494-4.71,8.02c-1.118,2.535-1.668,4.796-1.821,6.748c-0.13,1.961,0.092,3.661,0.715,5.601
		c0.623,1.922,1.796,4.071,3.478,6.31c3.385,4.502,8.751,9.072,14.743,13.133c6.034,4.068,12.664,7.875,19.541,11.308
		c6.878,3.449,13.983,6.604,21.145,9.549c7.151,2.978,14.35,5.793,21.542,8.438c7.188,2.658,14.373,5.133,21.479,7.563
		c7.102,2.447,14.146,4.783,21.105,7.034c13.932,4.454,27.458,8.784,40.508,12.814c13.065,4.083,25.587,7.997,37.496,11.719
		c5.957,1.91,11.76,3.771,17.403,5.58c5.641,1.829,11.13,3.554,16.424,5.352c10.598,3.534,20.52,6.86,29.639,10.117
		c4.559,1.629,8.932,3.191,13.111,4.685c4.158,1.558,8.124,3.043,11.889,4.453c3.768,1.384,7.301,2.818,10.631,4.13
		c3.326,1.332,6.451,2.521,9.341,3.735c2.883,1.21,5.55,2.331,7.993,3.356c2.441,1.024,4.66,1.945,6.612,2.846
		c3.926,1.753,6.93,3.115,8.948,4.05C527.241,294.916,528.284,295.395,528.284,295.395z"/>
</g>
<g>
	<g>
		<path fill="#EA2D2E" d="M267.015,277.669c0,0-0.216,1.386-0.62,3.985c-0.381,2.585-0.812,6.234-1.153,11.065
			c-0.275,4.8-0.388,10.653,0.038,17.349c0.429,6.691,1.389,14.228,3.215,22.296c0.97,4.018,2.023,8.202,3.45,12.431
			c0.643,2.138,1.484,4.247,2.242,6.424c0.875,2.131,1.675,4.333,2.67,6.488c3.785,8.701,8.695,17.497,14.746,25.921
			c2.994,4.235,6.349,8.317,9.917,12.29c3.559,3.983,7.431,7.775,11.532,11.371c2.022,1.832,4.178,3.525,6.311,5.258
			c2.194,1.653,4.38,3.336,6.673,4.88l1.702,1.185l1.735,1.112l3.545,2.257c1.188,0.72,2.389,1.382,3.584,2.077
			c1.195,0.689,2.384,1.39,3.632,2.005l3.7,1.91c1.241,0.622,2.516,1.172,3.771,1.762c2.498,1.213,5.1,2.176,7.655,3.239
			c5.189,1.911,10.421,3.698,15.751,4.959l1.987,0.511c0.665,0.157,1.335,0.284,2.001,0.428c1.334,0.279,2.666,0.559,3.994,0.837
			c1.339,0.22,2.675,0.439,4.007,0.658l1.997,0.326l2.003,0.237c1.334,0.156,2.664,0.313,3.989,0.468
			c1.331,0.098,2.658,0.194,3.98,0.29l1.98,0.143l1.977,0.056c1.316,0.037,2.627,0.074,3.932,0.11
			c10.446-0.003,20.556-1.115,29.916-3.226c9.358-2.124,17.976-5.122,25.613-8.583c7.645-3.457,14.303-7.373,19.925-11.235
			c5.623-3.865,10.26-7.628,13.86-10.956c0.903-0.83,1.779-1.593,2.565-2.352c0.773-0.771,1.499-1.494,2.174-2.167
			s1.3-1.296,1.872-1.866c0.545-0.596,1.041-1.137,1.485-1.622c1.773-1.941,2.72-2.978,2.72-2.978s-0.929,1.052-2.671,3.023
			c-0.436,0.492-0.923,1.042-1.459,1.647c-0.563,0.581-1.178,1.214-1.842,1.898c-0.664,0.686-1.379,1.421-2.141,2.206
			c-0.774,0.773-1.639,1.552-2.529,2.398c-3.552,3.396-8.137,7.245-13.718,11.221c-5.581,3.973-12.209,8.022-19.848,11.633
			c-7.633,3.613-16.272,6.783-25.692,9.087c-9.422,2.29-19.632,3.59-30.227,3.769c-1.324-0.015-2.654-0.029-3.99-0.045l-2.007-0.023
			l-2.012-0.11c-1.344-0.075-2.692-0.151-4.046-0.228c-1.349-0.135-2.702-0.271-4.059-0.407l-2.04-0.207l-2.035-0.297
			c-1.358-0.2-2.72-0.401-4.085-0.603c-1.355-0.26-2.715-0.521-4.077-0.782c-0.68-0.135-1.365-0.254-2.044-0.402l-2.031-0.485
			c-5.448-1.194-10.807-2.923-16.132-4.785c-2.623-1.038-5.295-1.979-7.864-3.174c-1.292-0.58-2.603-1.12-3.88-1.734l-3.811-1.887
			c-1.28-0.605-2.522-1.308-3.769-1.999c-1.241-0.695-2.508-1.369-3.728-2.082l-3.582-2.197l-1.818-1.123l-1.761-1.183
			c-2.372-1.54-4.637-3.223-6.912-4.88c-2.214-1.736-4.451-3.436-6.555-5.278c-4.266-3.615-8.303-7.44-12.027-11.471
			c-3.733-4.018-7.252-8.158-10.405-12.464c-6.372-8.563-11.584-17.544-15.642-26.46c-1.063-2.208-1.93-4.467-2.869-6.654
			c-0.822-2.234-1.725-4.402-2.429-6.6c-1.547-4.349-2.712-8.658-3.784-12.804c-2.032-8.323-3.16-16.125-3.721-23.069
			c-0.559-6.949-0.544-13.042-0.339-18.048c0.262-4.972,0.672-8.998,1.017-11.622c0.361-2.605,0.553-3.995,0.553-3.995
			L267.015,277.669z"/>
	</g>
	<polygon fill="none" stroke="#EA2D2E" stroke-width="14" stroke-miterlimit="10" points="274.733,280.533 255.621,274.986 
		270.724,258.65 	"/>
</g>
<g>
	<g>
		<path fill="#009D4E" d="M530.053,334.983c0,0,0.267-1.402,0.767-4.031c0.479-2.621,1.033-6.312,1.543-11.213
			c0.423-4.874,0.732-10.821,0.494-17.644c-0.233-6.819-1.016-14.509-2.649-22.765c-1.676-8.241-4.204-17.05-7.876-25.984
			c-1.81-4.479-3.98-8.946-6.346-13.435c-2.414-4.464-5.134-8.885-8.101-13.249c-3.007-4.337-6.312-8.572-9.863-12.686
			c-3.572-4.099-7.456-8.008-11.549-11.755c-4.092-3.754-8.506-7.212-13.068-10.495l-3.437-2.391l-3.608-2.294l-1.805-1.148
			l-1.826-1.047l-3.654-2.098l-3.766-1.941l-1.883-0.97l-1.924-0.884l-3.848-1.764l-3.919-1.585l-1.959-0.787l-1.988-0.701
			c-1.326-0.464-2.651-0.927-3.975-1.39c-2.689-0.786-5.34-1.691-8.055-2.318c-5.38-1.456-10.839-2.399-16.247-3.165
			c-2.715-0.305-5.41-0.658-8.106-0.791c-2.689-0.235-5.369-0.267-8.026-0.329c-10.633-0.111-20.91,1.133-30.442,3.217
			c-9.52,2.173-18.277,5.259-26.032,8.814c-7.761,3.553-14.513,7.58-20.205,11.55c-5.697,3.968-10.371,7.851-14.004,11.27
			c-0.911,0.853-1.789,1.643-2.586,2.417c-0.778,0.793-1.508,1.537-2.187,2.229s-1.307,1.333-1.883,1.92
			c-0.548,0.612-1.047,1.168-1.493,1.666c-1.782,1.997-2.732,3.062-2.732,3.062s0.933-1.081,2.682-3.106
			c0.438-0.506,0.928-1.071,1.467-1.692c0.566-0.597,1.185-1.248,1.853-1.952c0.668-0.704,1.387-1.461,2.153-2.268
			c0.786-0.789,1.652-1.594,2.551-2.464c3.584-3.485,8.205-7.455,13.86-11.534c5.649-4.081,12.37-8.241,20.127-11.948
			c7.75-3.708,16.53-6.967,26.113-9.321c9.595-2.265,19.976-3.695,30.76-3.76c2.695,0.019,5.415,0.007,8.148,0.2
			c2.739,0.091,5.481,0.403,8.245,0.668c5.507,0.687,11.075,1.557,16.575,2.947c2.774,0.595,5.487,1.47,8.241,2.227
			c1.356,0.449,2.714,0.899,4.073,1.349l2.039,0.682l2.011,0.769l4.022,1.552l3.956,1.734l1.979,0.871l1.938,0.958l3.878,1.92
			l3.809,2.103l1.903,1.053l1.824,1.119l3.645,2.235l3.615,2.424c4.722,3.28,9.3,6.749,13.558,10.527
			c4.259,3.772,8.311,7.719,12.048,11.868c3.718,4.165,7.187,8.463,10.354,12.874c3.126,4.438,6.001,8.946,8.565,13.506
			c2.514,4.584,4.827,9.158,6.771,13.749c3.941,9.16,6.708,18.225,8.583,26.732c1.834,8.522,2.776,16.488,3.136,23.568
			c0.364,7.085,0.145,13.281-0.214,18.366c-0.435,5.046-0.985,9.134-1.428,11.784c-0.456,2.638-0.699,4.044-0.699,4.044
			L530.053,334.983z"/>
	</g>
	<polygon fill="none" stroke="#009D4E" stroke-width="14" stroke-miterlimit="10" points="524.368,320.291 543.593,325.443 
		528.825,342.09 	"/>
</g>
</svg>
